<svg width="18" height="18" viewBox="0 0 18 18" fill="none" xmlns="http://www.w3.org/2000/svg">
<g clip-path="url(#clip0_275_138)">
<path d="M8.67024 18H2.01439C1.72604 18 1.49222 17.7662 1.49222 17.4778C1.49222 17.1894 1.72604 16.9556 2.01439 16.9556H8.43107L15.2926 9L8.43104 1.04432H3.15426L8.17542 6.86619C8.36375 7.08462 8.33942 7.41431 8.12107 7.60264C7.90271 7.79105 7.57291 7.76661 7.38461 7.54822L1.61899 0.863191C1.48557 0.708539 1.4546 0.490324 1.53961 0.304699C1.62468 0.119039 1.81017 0 2.01439 0H8.67024C8.82208 0 8.96647 0.0661641 9.06561 0.181125L16.3774 8.65898C16.5465 8.85495 16.5465 9.14512 16.3774 9.34109L9.06564 17.8189C8.96647 17.9338 8.82208 18 8.67024 18Z" fill="#EB662B"/>
<path d="M15.9833 8.99991L8.67148 17.4777H2.01562L9.32742 8.99991L9.3257 8.99787L12.6415 5.15332L15.9833 8.99991Z" fill="#EB662B"/>
<path d="M8.67021 18H2.01436C1.81013 18 1.62468 17.881 1.53961 17.6953C1.4546 17.5096 1.48557 17.2915 1.61899 17.1368L8.89682 8.69836C8.90674 8.68416 8.9175 8.67031 8.92903 8.65695L12.2448 4.81243C12.3438 4.69765 12.4877 4.63163 12.6392 4.63131C12.6396 4.63131 12.6399 4.63131 12.6402 4.63131C12.7914 4.63131 12.9352 4.69684 13.0344 4.81099L16.3762 8.65758C16.5464 8.85343 16.547 9.1446 16.3774 9.34109L9.06561 17.8189C8.96643 17.9338 8.82205 18 8.67021 18ZM3.15423 16.9557H8.431L15.2914 9.00127L12.6416 5.95129L9.75379 9.29964C9.74388 9.31384 9.73312 9.32769 9.72159 9.34105L3.15423 16.9557Z" fill="#EB662B"/>
</g>
<defs>
<clipPath id="clip0_275_138">
<rect width="18" height="18" fill="white"/>
</clipPath>
</defs>
</svg>
