<svg width="140" height="32" viewBox="0 0 140 32" fill="none" xmlns="http://www.w3.org/2000/svg">
<path d="M88.924 20.0281C86.4929 20.0281 84.5146 18.0493 84.5146 15.6188C84.5146 13.1878 86.4929 11.2095 88.924 11.2095C91.355 11.2095 93.3327 13.1878 93.3327 15.6188C93.3327 18.0736 91.3307 20.0281 88.924 20.0281ZM88.924 8.58742C85.0392 8.58742 81.8931 11.734 81.8931 15.6188C81.8931 19.5036 85.0392 22.6497 88.924 22.6497C92.8088 22.6497 95.9548 19.5036 95.9548 15.6188C95.9548 11.7577 92.8088 8.58742 88.924 8.58742ZM80.3201 20.3854H80.8921V23.0306H80.3201C77.2933 23.0306 74.8142 20.5521 74.8142 17.5253V5.44137H77.46V8.96893H80.8678V11.6147H77.46V17.5491C77.46 19.0983 78.7471 20.3854 80.3201 20.3854ZM112.543 20.0281C110.111 20.0281 108.134 18.0493 108.134 15.6188C108.134 13.1878 110.111 11.2095 112.543 11.2095C114.974 11.2095 116.952 13.1878 116.952 15.6188C116.928 18.0736 114.95 20.0281 112.543 20.0281ZM112.543 8.58742C108.658 8.58742 105.512 11.734 105.512 15.6188C105.512 19.5036 108.658 22.6497 112.543 22.6497C116.427 22.6497 119.573 19.5036 119.573 15.6188C119.573 11.7577 116.427 8.58742 112.543 8.58742ZM132.778 20.0281C130.346 20.0281 128.368 18.0493 128.368 15.6188C128.368 13.1878 130.346 11.2095 132.777 11.2095C135.208 11.2095 137.186 13.1878 137.186 15.6188C137.186 18.0736 135.185 20.0281 132.778 20.0281ZM132.777 8.58742C128.892 8.58742 125.746 11.734 125.746 15.6188C125.746 19.5036 128.892 22.6497 132.777 22.6497C134.493 22.6497 136.066 22.0296 137.282 21.0049V22.3874H139.808V15.833V15.6183C139.808 11.7572 136.662 8.58742 132.777 8.58742ZM103.224 8.58794H104.487V11.2332H103.224C101.651 11.2332 100.364 12.5208 100.364 14.0933V22.4829H97.7183V14.0933C97.7183 11.0665 100.197 8.58794 103.224 8.58794ZM121.337 5.08413H123.983V22.4349H121.337V5.08413ZM57.2255 14.4505V22.8164H54.5797V14.4505C54.5797 12.8775 53.2927 11.5905 51.7196 11.5905C50.1471 11.5905 48.8596 12.8775 48.8596 14.4505V22.8159H46.2143V14.4505C46.2143 12.8775 44.9268 11.5905 43.3543 11.5905C41.7818 11.5905 40.4942 12.8775 40.4942 14.4505V22.8159H37.849V14.4505C37.849 11.4232 40.3275 8.94466 43.3305 8.94466C45.0228 8.94466 46.5003 9.68342 47.5251 10.8755C48.5498 9.68342 50.0274 8.94466 51.7202 8.94466C54.7464 8.94466 57.2255 11.4232 57.2255 14.4505ZM66.0436 20.3854C63.6126 20.3854 61.6343 18.4071 61.6343 15.976C61.6343 13.545 63.6131 11.5667 66.0436 11.5667C68.4746 11.5667 70.4529 13.5455 70.4529 15.976C70.4529 18.4071 68.4509 20.3854 66.0436 20.3854ZM66.0436 8.94519C62.1351 8.94519 58.9885 12.0912 58.9885 15.976C58.9885 19.8608 62.1351 23.0069 66.0199 23.0069C69.9047 23.0069 73.0507 19.8608 73.0507 15.976C73.0745 12.115 69.9284 8.94519 66.0436 8.94519ZM16.1839 0.0078125C7.342 0.0078125 0.191895 7.15792 0.191895 15.9998C0.191895 24.8416 7.342 31.9923 16.1839 31.9923C25.0263 31.9923 32.1764 24.8422 32.1764 15.9998C32.1764 7.20541 25.1212 0.0078125 16.1839 0.0078125Z" fill="#46505B"/>
<path d="M20.9528 3.93945L16.21 19.6697L16.1857 19.6934L16.1382 19.6697L11.3954 3.93945L5.27002 24.079H6.41404C6.41404 24.079 7.17707 20.5752 8.44034 18.4782C9.13161 17.3342 10.1801 16.4044 11.5859 16.4281C12.5869 16.4524 13.4449 17.0001 14.5177 18.5019C14.7557 18.8354 15.0417 19.3837 15.3277 19.9082C15.7809 20.7894 16.1619 21.6955 16.1619 21.6955C16.1619 21.6955 17.1629 19.4074 17.8067 18.5019C18.879 17.0001 19.737 16.4524 20.738 16.4281C22.1443 16.4044 23.2165 17.3342 23.8841 18.4782C25.1473 20.5752 25.9104 24.079 25.9104 24.079H27.0538L20.9528 3.93945Z" fill="white"/>
</svg>
