<svg width="124" height="36" viewBox="0 0 124 36" fill="none" xmlns="http://www.w3.org/2000/svg">
<g clip-path="url(#clip0_89_2745)">
<path d="M13.5608 24.8087C11.7615 24.8087 9.82534 25.9171 9.82534 28.3571C9.82534 31.7687 12.6755 32.035 13.5464 32.035C14.4245 32.035 17.2747 31.7687 17.2747 28.3571C17.2819 25.9171 15.353 24.8087 13.5608 24.8087ZM13.5608 30.7466C12.5604 30.7466 11.3872 30.1276 11.3872 28.3643C11.3872 27.0183 12.2581 26.1186 13.5464 26.1186C14.842 26.1186 15.7201 27.0183 15.7201 28.3643C15.7201 30.1276 14.5541 30.7466 13.5608 30.7466ZM20.1537 31.9054H21.6364V26.1762H23.9756V24.9455H17.8145V26.1762H20.1537V31.9054ZM28.3372 24.8087C26.5379 24.8087 24.6089 25.9171 24.6089 28.3571C24.6089 31.7687 27.4591 32.035 28.33 32.035C29.2081 32.035 32.0655 31.7687 32.0655 28.3571C32.0583 25.9171 30.1294 24.8087 28.3372 24.8087ZM28.3372 30.7466C27.3368 30.7466 26.1636 30.1276 26.1636 28.3643C26.1636 26.8096 27.2504 26.1186 28.3228 26.1186C29.6256 26.1186 30.4965 27.0183 30.4965 28.3643C30.4965 30.1276 29.3377 30.7466 28.3372 30.7466ZM37.7227 29.2783C38.7088 29.0408 39.3709 28.2203 39.3709 27.2271C39.3709 25.3341 37.8163 24.9383 36.5135 24.9383H33.2747V31.8982H34.7574V29.6094H36.0529L37.7155 31.8982H39.5653L37.5644 29.3143L37.7227 29.2783ZM36.2112 28.3858H34.779V26.1762H36.1753C37.2693 26.1762 37.8019 26.5217 37.8019 27.2343C37.8091 28.0044 37.2837 28.3858 36.2112 28.3858ZM48.1374 30.7466C46.5468 30.7466 45.5608 29.8541 45.5608 28.4146C45.5608 26.9176 46.4964 26.0971 48.2022 26.0971C49.0011 26.0971 49.5841 26.2338 50.088 26.385V25.0894C49.4258 24.8951 48.5981 24.8087 48.0655 24.8087C46.1941 24.8087 44.0061 25.7516 44.0061 28.4218C44.0061 30.7178 45.4816 32.035 48.0439 32.035C48.6557 32.035 49.4186 31.9558 50.1024 31.8118V30.4299C49.6705 30.5595 48.9652 30.7394 48.1734 30.7466H48.1374ZM54.9175 24.8087C53.1181 24.8087 51.182 25.9171 51.182 28.3571C51.182 31.7687 54.0322 32.035 54.9031 32.035C55.7812 32.035 58.6386 31.7687 58.6386 28.3571C58.6386 25.9171 56.7096 24.8087 54.9175 24.8087ZM54.9175 30.7466C53.917 30.7466 52.7438 30.1276 52.7438 28.3643C52.7438 26.8096 53.8306 26.1186 54.9031 26.1186C56.2058 26.1186 57.0767 27.0183 57.0767 28.3643C57.0767 30.1276 55.9107 30.7466 54.9175 30.7466ZM64.4973 29.2783C65.4833 29.0408 66.1455 28.2203 66.1455 27.2271C66.1455 25.3341 64.5909 24.9383 63.2881 24.9383H60.0493V31.8982H61.5319V29.6094H62.8275L64.4901 31.8982H66.3398L64.3389 29.3143L64.4973 29.2783ZM62.993 28.3858H61.5607V26.1762H62.957C64.051 26.1762 64.5837 26.5217 64.5837 27.2343C64.5837 28.0044 64.0654 28.3858 62.993 28.3858ZM70.9606 24.9455H67.7649V31.9054H69.2476V29.9261H70.9678C72.4217 29.9261 73.9692 29.2711 73.9692 27.4286C73.9692 25.7516 72.9903 24.9455 70.9606 24.9455ZM70.8167 28.6953H69.2476V26.1762H70.7879C71.5436 26.1762 72.4145 26.313 72.4145 27.3854C72.4073 28.537 71.6084 28.6953 70.8167 28.6953ZM78.6979 24.8087C76.8985 24.8087 74.9624 25.9171 74.9624 28.3571C74.9624 31.7687 77.8126 32.035 78.6835 32.035C79.5616 32.035 82.419 31.7687 82.419 28.3571C82.419 25.9171 80.4901 24.8087 78.6979 24.8087ZM78.6979 30.7466C77.6974 30.7466 76.5243 30.1276 76.5243 28.3643C76.5243 27.0183 77.3951 26.1186 78.6835 26.1186C79.979 26.1186 80.8571 27.0183 80.8571 28.3643C80.8643 30.1276 79.6983 30.7466 78.6979 30.7466ZM88.2849 29.2783C89.271 29.0408 89.9331 28.2203 89.9331 27.2271C89.9331 25.3341 88.3785 24.9383 87.0757 24.9383H83.8369V31.8982H85.3196V29.6094H86.6151L88.2777 31.8982H90.1275L88.1266 29.3143L88.2849 29.2783ZM86.7806 28.3858H85.3484V26.1762H86.7447C87.8387 26.1762 88.3713 26.5217 88.3713 27.2343C88.3713 28.0044 87.8531 28.3858 86.7806 28.3858ZM93.5175 24.9455L90.9048 31.9054H92.3803L92.8481 30.6027H96.3461L96.7635 31.9054H98.4046L95.7415 24.9455H93.5175ZM93.2728 29.3647L94.5683 25.9459L95.9142 29.3647H93.2728ZM100.348 31.9054H101.831V26.1762H104.17V24.9455H98.0087V26.1762H100.348V31.9054ZM105.624 24.9455H107.106V31.9054H105.624V24.9455ZM112.332 24.8087C110.532 24.8087 108.603 25.9171 108.603 28.3571C108.603 31.7687 111.454 32.035 112.324 32.035C113.203 32.035 116.06 31.7687 116.06 28.3571C116.053 25.9171 114.124 24.8087 112.332 24.8087ZM112.332 30.7466C111.331 30.7466 110.158 30.1276 110.158 28.3643C110.158 26.8096 111.245 26.1186 112.317 26.1186C113.613 26.1186 114.491 27.0183 114.491 28.3643C114.491 30.1276 113.325 30.7466 112.332 30.7466ZM122.444 29.6814L119.248 24.9527H117.449V31.9054H118.903V26.8312L122.372 31.9054H123.898V24.9527H122.444V29.6814ZM1.62743 24.9455H0.101562V31.9054H1.58424V27.6373L3.81545 31.9054H4.85189L7.0903 27.6373V31.9054H8.57298V24.9455H7.04712L4.33367 29.9909L1.62743 24.9455ZM71.9683 9.63645H63.5472C63.1658 9.63645 62.7411 9.60766 62.5396 9.55008C61.791 9.34855 61.4384 8.69358 61.4384 8.02422C61.4384 7.44842 61.7551 6.75026 62.554 6.50555C62.7915 6.43357 63.0218 6.42638 63.5112 6.42638H75.459V3.96484H63.3169C62.8419 3.96484 62.4532 3.97924 62.1149 4.02962C60.15 4.30312 58.7249 5.94415 58.7249 8.03141C58.7249 9.89556 59.9269 11.7381 62.0645 12.0548C62.5324 12.1268 63.2449 12.1124 63.4393 12.1124H71.6012C71.7163 12.1124 72.1266 12.1196 72.2346 12.134C73.2062 12.2707 73.71 13.0193 73.71 13.8542C73.71 14.5595 73.2782 15.3656 72.3209 15.5384C72.1986 15.56 71.7667 15.5744 71.6228 15.5744H59.1352V18.0647H71.8171C71.9683 18.0647 72.6736 18.0575 72.8176 18.0431C75.1855 17.8272 76.4235 15.891 76.4235 13.8398C76.4235 12.0332 75.3007 9.91715 73.0119 9.68683C72.5297 9.62925 72.1338 9.63645 71.9683 9.63645ZM47.8639 9.63645H39.4429C39.0614 9.63645 38.6368 9.60766 38.4353 9.55008C37.6867 9.34855 37.3341 8.69358 37.3341 8.02422C37.3341 7.44842 37.6507 6.75026 38.4497 6.50555C38.6872 6.43357 38.9175 6.42638 39.4069 6.42638H51.3547V3.96484H39.2126C38.7376 3.96484 38.3489 3.97924 38.0106 4.02962C36.0457 4.30312 34.6206 5.94415 34.6206 8.03141C34.6206 9.89556 35.8226 11.7381 37.9602 12.0548C38.4281 12.1268 39.1406 12.1124 39.3349 12.1124H47.4969C47.612 12.1124 48.0223 12.1196 48.1303 12.134C49.1019 12.2707 49.6057 13.0193 49.6057 13.8542C49.6057 14.5595 49.1739 15.3656 48.2166 15.5384C48.0943 15.56 47.6624 15.5744 47.5185 15.5744H35.0309V18.0647H47.7128C47.8639 18.0647 48.5693 18.0575 48.7132 18.0431C51.0812 17.8272 52.3192 15.891 52.3192 13.8398C52.3192 12.0332 51.1892 9.91715 48.9076 9.68683C48.4253 9.62925 48.0295 9.63645 47.8639 9.63645ZM25.1703 3.96484H27.855V18.0575H25.1703V3.96484ZM14.8924 15.2289L3.85864 3.96484H0.101562V18.0575H2.78622V6.72147L13.8991 18.0575H17.577V3.96484H14.8924V15.2289ZM121.206 15.2289L110.172 3.96484H106.415V18.0575H109.1V6.72147L120.213 18.0575H123.891V3.96484H121.206V15.2289ZM89.6164 3.96484L80.9075 18.0575H84.1824L85.7874 15.452H96.6052L98.2102 18.0575H101.485L92.7833 3.96484H89.6164ZM87.1189 13.2064L91.1999 6.58472L95.2737 13.2064H87.1189Z" fill="#46505B"/>
</g>
<defs>
<clipPath id="clip0_89_2745">
<rect width="123.796" height="36" fill="white" transform="translate(0.101562)"/>
</clipPath>
</defs>
</svg>
