<svg width="138" height="32" viewBox="0 0 138 32" fill="none" xmlns="http://www.w3.org/2000/svg">
<g clip-path="url(#clip0_89_2748)">
<path d="M137.803 14.6523V15.3314C137.803 15.3314 137.063 15.624 137.063 16.4964L137.069 31.0664C137.069 31.5799 136.655 31.9995 136.141 31.9995H133.276L126.976 22.0561C126.976 22.0561 127.109 22.8787 127.109 23.9167V31.9995H123.619V14.6523H125.883C127.037 14.6523 127.876 15.1272 128.484 16.0823C128.997 16.8884 133.756 24.386 133.756 24.386C133.756 24.386 133.585 23.878 133.585 22.5088V14.6523H137.803ZM70.7886 14.6523V31.0664C70.7886 31.5799 70.369 31.9995 69.8555 31.9995H66.9956L60.6961 22.0561C60.6961 22.0561 60.8286 22.8787 60.8286 23.9167V31.9995H57.3338V14.6523H59.5919C60.7458 14.6523 61.585 15.1272 62.1923 16.0823C62.7058 16.8884 67.4704 24.386 67.4704 24.386C67.4704 24.386 67.2993 23.878 67.2993 22.5088V14.6523H70.7886ZM27.6195 14.6523H22.9542V21.2997H18.8742V14.6523H13.458V15.3314C13.458 15.3314 14.1978 15.613 14.1978 16.4964V31.9995H18.8742V24.4743H22.9542V31.9995H27.6195V14.6523ZM42.7251 14.6523H32.3345V30.4481C32.3345 31.348 33.1902 31.9995 34.0846 31.9995H42.7251C43.2385 31.9995 43.6581 31.5799 43.6581 31.0664V28.8304H37.6954C37.3089 28.8304 36.9942 28.5102 36.9942 28.1237V24.4743H42.3055V21.3052H36.9942V17.8269H43.6526V15.5909C43.6581 15.0719 43.2385 14.6523 42.7251 14.6523ZM52.5746 14.6523H47.9094V31.0664C47.9094 31.5799 48.329 31.9995 48.8424 31.9995H52.5746V14.6523ZM118.728 14.6523H108.332V30.4481C108.332 31.3149 109.187 31.9995 110.087 31.9995H118.728C119.241 31.9995 119.661 31.5799 119.661 31.0664V28.8304H113.698C113.312 28.8304 112.997 28.5102 112.997 28.1237V24.4743H118.314V21.3052H112.997V17.8269H119.666V15.5909C119.666 15.0719 119.241 14.6523 118.728 14.6523ZM85.8942 14.6523H75.498V30.4481C75.498 31.3149 76.3538 31.9995 77.2537 31.9995H85.8942C86.4076 31.9995 86.8272 31.5799 86.8272 31.0664V28.8304H80.8645C80.478 28.8304 80.1633 28.5102 80.1633 28.1237V24.4743H85.4801V21.3052H80.1633V17.8269H86.8272V15.5909C86.8272 15.0719 86.4076 14.6523 85.8942 14.6523ZM105.637 14.6523H102.27C101.458 14.6523 100.84 14.8566 100.194 15.5964C99.5532 16.3363 95.4401 21.0733 95.4401 21.0733V14.6523H90.7748V31.0664C90.7748 31.5799 91.1944 31.9995 91.7078 31.9995H95.4401V24.1375C95.4401 24.1375 98.9404 29.6089 99.5532 30.5695C100.166 31.5302 100.779 32.005 102.176 32.005H106.007L99.4594 21.769L105.637 14.6523Z" fill="#46505B"/>
<path d="M4.76443 20.9696C4.53255 21.1408 4.22337 20.92 4.31171 20.6494C4.43869 20.2629 6.78514 13.0414 6.78514 13.0414L0.314469 8.33748C0.0825846 8.16633 0.204048 7.80746 0.485621 7.81298H8.4801C8.4801 7.81298 10.8321 0.591448 10.9535 0.204974C11.0419 -0.0655572 11.4228 -0.0710783 11.5112 0.204974C11.6326 0.591448 13.9846 7.80746 13.9846 7.80746H21.9791C22.2606 7.80746 22.3876 8.1608 22.1502 8.33196L18.291 11.1367H13.7251L12.3117 6.79711L10.9038 11.1422H6.33793L10.0315 13.8254L8.61813 18.1649C8.61813 18.1705 4.99632 20.7985 4.76443 20.9696Z" fill="#363636" fill-opacity="0.4"/>
</g>
<defs>
<clipPath id="clip0_89_2748">
<rect width="137.694" height="32" fill="white" transform="translate(0.15332)"/>
</clipPath>
</defs>
</svg>
