<svg width="130" height="36" viewBox="0 0 130 36" fill="none" xmlns="http://www.w3.org/2000/svg">
<path fill-rule="evenodd" clip-rule="evenodd" d="M87.9621 9.9314H78.0773V12.0005C78.901 12.0005 79.7254 12.2074 79.9303 12.6214C80.3429 12.8284 80.5492 13.4486 80.5492 14.2765V17.1735H73.753V14.2765C73.753 13.4493 73.9593 12.8284 74.1656 12.6214C74.5767 12.2074 75.4012 12.0005 76.2249 12.0005V9.9314H66.1338V12.0005C66.9575 12.0005 67.1631 12.0005 67.5743 12.2074C67.9868 12.2074 67.9868 12.6214 68.1917 12.6214C68.6043 13.2423 68.8106 13.6556 68.8106 14.2765V25.2421C68.8106 25.2421 68.6043 25.8623 68.1917 26.0693L67.5743 26.6895H66.1338V28.7593H76.2235V26.6895H74.7816C74.5753 26.2756 74.1642 26.0693 74.1642 26.0693C73.9579 25.8616 73.9579 25.4477 73.9579 25.2421C73.7516 25.0344 73.7516 24.4149 73.7516 24.4149V20.0698H80.5478V25.2421C80.5478 25.2421 80.3415 25.8623 80.3415 26.0693C79.9289 26.0693 79.724 26.2756 79.5178 26.6895H78.0759V28.7593H87.9607V26.6895H86.5188C86.3126 26.2756 86.1077 26.0693 85.6951 26.0693C85.6951 25.8616 85.4888 25.4477 85.4888 25.2421V14.2758C85.4888 13.6549 85.6951 13.2416 86.1077 12.6207C86.3126 12.2067 87.137 11.9998 87.9607 11.9998V9.9314H87.9621ZM89.1977 9.9314V12.0005C90.0215 12.0005 90.6382 12.0005 90.8445 12.2074C91.2571 12.2074 91.462 12.6214 91.462 12.8284C91.8745 13.2423 91.8745 13.4493 91.8745 13.4493L92.0808 14.2765V25.2421C92.0808 25.2421 91.8745 25.8623 91.462 26.0693L90.8445 26.6895H89.1977V28.7593H106.701L109.996 22.1381L107.937 21.3109C106.701 23.38 105.465 24.4149 103.818 25.2421C102.17 26.0693 100.523 26.2756 98.67 26.2756C98.0512 26.2756 97.8449 26.2756 97.4344 26.0693C97.2281 25.8616 97.0219 25.0344 97.0219 24.0002V20.0691H97.8456C99.0812 20.0691 99.7 20.2754 100.111 20.483C100.73 21.1047 101.141 21.9319 101.141 22.9654H103.2V14.2758H101.141C101.141 15.31 100.729 16.1379 100.111 16.7588C99.7 16.9658 99.0819 17.1728 97.8456 17.1728H97.0219V14.6898C97.0219 13.6556 97.2281 13.4486 97.2281 12.8277C97.4344 12.6207 98.2575 12.2067 99.2875 12.2067H99.9049C101.964 12.2067 103.406 12.8277 104.642 13.6549C105.877 14.4828 106.701 15.517 107.319 16.5512L109.173 15.517L106.496 9.9307L89.1977 9.9314ZM127.706 22.1381C127.293 22.9654 126.676 24.0009 125.646 25.0344C125.028 25.4484 124.617 25.8616 123.793 26.0693C123.174 26.6895 122.351 26.6895 121.528 26.6895C120.909 26.6895 120.704 26.6895 119.88 26.2756C119.262 26.0693 118.85 25.8616 118.233 25.2421C117.82 24.6205 117.203 24.0009 116.997 22.966C116.586 22.1388 116.38 20.69 116.38 19.4488C116.38 16.7595 116.586 14.6905 117.82 13.6563C118.85 12.2081 119.88 11.7942 120.909 11.7942C122.557 11.7942 123.793 12.2081 124.823 13.4493C125.646 14.4842 126.676 15.5184 127.293 17.1735L129.559 16.5526L127.088 9.93209H125.44L125.028 10.346C124.616 10.1391 123.793 9.93209 122.968 9.51814C122.351 9.51814 121.321 9.31186 120.498 9.31186C117.409 9.31186 114.937 10.346 113.29 12.0019C111.642 13.8639 110.613 16.5532 110.613 19.4495C110.613 22.1395 111.642 24.6219 113.702 26.6909C115.143 28.5537 117.82 29.3809 120.704 29.3809C123.174 29.3809 125.439 28.5537 126.676 27.3119C128.323 26.277 129.148 24.6219 129.971 23.3807L127.706 22.1381ZM48.8346 3.31023C46.5696 1.03488 43.6865 0 39.5679 0C33.8017 0 28.4474 1.86209 23.7112 5.3793C19.387 9.31047 16.9157 13.6556 15.8857 18.6202C15.4739 20.0691 15.2676 21.104 15.2676 22.1374C15.2676 26.6888 16.9151 29.7921 19.3863 32.4828C22.0631 34.7588 25.358 36 29.4767 36C31.9479 36 34.0073 35.586 36.2722 35.1728C38.1253 34.5512 40.5972 33.1037 42.0384 32.0688C44.3033 30.2061 43.0677 29.5865 41.4202 30.62C40.5965 31.2416 38.1253 32.6891 36.4778 32.896C35.0359 33.1037 32.9766 33.5163 30.7116 33.5163C27.2104 33.5163 24.5336 32.6891 22.2687 30.62C20.2093 28.5509 19.3856 26.0686 19.3856 22.5514C19.3856 21.3102 19.3856 20.2754 19.5912 19.2412C20.4149 14.4821 22.6798 10.7579 25.9748 7.44768C29.6816 4.13744 33.8003 2.48233 38.742 2.48233C42.037 2.48233 44.5082 3.30954 46.3613 5.17233C48.0087 6.82744 49.0381 9.31046 49.0381 12.0005C48.8318 16.1386 47.8025 19.4481 46.3613 21.3109C44.5082 24.0009 43.0663 24.6212 42.86 24.6212C42.2426 24.6212 42.2426 24.4149 42.2426 24.4149C42.2426 23.38 43.0663 20.4837 43.2719 19.4488L46.3606 9.51814C46.3606 9.31186 46.3606 9.10418 45.7424 9.10418H41.83C41.4181 9.10418 40.5944 9.31116 40.3881 10.1391L39.9762 10.967C38.5351 17.1742 34.6226 21.1053 33.5926 22.1388C31.9452 23.794 30.7102 24.4149 30.2977 24.4149C29.6802 24.4149 29.6802 24.0009 29.6802 23.5877C29.6802 23.38 29.6802 22.966 29.8858 21.7249L33.1808 13.6556C33.7989 12.6214 33.7989 11.3795 33.7989 10.9663C33.7989 9.51744 32.9752 8.48326 31.3277 8.48326C29.6802 8.48326 27.0027 9.10419 23.9141 11.7942C22.6784 13.4493 22.2666 14.2765 22.2666 14.2765C22.2666 14.6905 22.884 14.6905 22.884 14.6905C23.2959 14.6905 23.9141 13.8632 24.5315 13.4493C25.3552 12.6221 26.3846 11.3802 27.2083 11.3802C27.8258 11.3802 27.8258 11.7942 27.8258 12.0012C27.8258 12.2081 27.4139 12.8284 27.2083 13.6563L24.7371 19.2426C24.3252 20.4837 23.0896 22.966 23.0896 25.2428C23.0896 27.9328 25.149 28.553 26.179 28.553C28.8558 28.553 33.5919 26.0707 37.7113 18.8293L37.0939 20.6907C36.8876 21.9332 36.2694 24.4156 36.2694 26.277C36.2694 26.8986 36.2694 28.553 38.1225 28.553C42.2412 28.553 45.3299 25.4491 46.978 23.5884C49.0374 20.6907 50.8904 18.0014 51.0967 15.5191C51.5086 13.657 51.5086 12.2088 51.5086 11.174C51.5121 7.65535 50.8939 5.17233 48.8346 3.31023Z" fill="#46505B"/>
<path fill-rule="evenodd" clip-rule="evenodd" d="M48.8346 3.31023C46.5696 1.03488 43.6865 0 39.5679 0C33.8017 0 28.4474 1.86209 23.7112 5.3793C19.387 9.31047 16.9157 13.6556 15.8857 18.6202C15.4739 20.0691 15.2676 21.104 15.2676 22.1374C15.2676 26.6888 16.9151 29.7921 19.3863 32.4828C22.0631 34.7588 25.358 36 29.4767 36C31.9479 36 34.0073 35.586 36.2722 35.1728C38.1253 34.5512 40.5972 33.1037 42.0384 32.0688C44.3033 30.2061 43.0677 29.5865 41.4202 30.62C40.5965 31.2416 38.1253 32.6891 36.4778 32.896C35.0359 33.1037 32.9766 33.5163 30.7116 33.5163C27.2104 33.5163 24.5336 32.6891 22.2687 30.62C20.2093 28.5509 19.3856 26.0686 19.3856 22.5514C19.3856 21.3102 19.3856 20.2754 19.5912 19.2412C20.4149 14.4821 22.6798 10.7579 25.9748 7.44768C29.6816 4.13744 33.8003 2.48233 38.742 2.48233C42.037 2.48233 44.5082 3.30954 46.3613 5.17233C48.0087 6.82744 49.0381 9.31046 49.0381 12.0005C48.8318 16.1386 47.8025 19.4481 46.3613 21.3109C44.5082 24.0009 42.86 24.6212 42.86 24.6212L42.2426 24.4149C42.2426 23.38 43.0663 20.4837 43.2719 19.4488L46.3606 9.51814C46.3606 9.31186 45.7424 9.10418 45.7424 9.10418H41.83C41.4181 9.10418 40.5944 9.31116 40.3881 10.1391L39.9762 10.967C38.5351 17.1742 34.6226 21.1053 33.5926 22.1388C31.9452 23.794 30.7102 24.4149 30.2977 24.4149C29.6802 24.4149 29.6802 23.5877 29.6802 23.5877C29.6802 23.5877 29.6802 22.966 29.8858 21.7249L33.1808 13.6556C33.7989 12.6214 33.7989 11.3795 33.7989 10.9663C33.7989 9.51744 32.9752 8.48326 31.3277 8.48326C29.6802 8.48326 27.0027 9.10419 23.9141 11.7942C22.6784 13.4493 22.2666 14.2765 22.2666 14.2765C22.2666 14.6905 22.884 14.6905 22.884 14.6905C23.2959 14.6905 23.9141 13.8632 24.5315 13.4493C25.3552 12.6221 26.3846 11.3802 27.2083 11.3802C27.8258 11.3802 27.8258 12.0012 27.8258 12.0012C27.8258 12.0012 27.4139 12.8284 27.2083 13.6563L24.7371 19.2426C24.3252 20.4837 23.0896 22.966 23.0896 25.2428C23.0896 27.9328 25.149 28.553 26.179 28.553C28.8558 28.553 33.5919 26.0707 37.7113 18.8293L37.0939 20.6907C36.8876 21.9332 36.2694 24.4156 36.2694 26.277C36.2694 26.8986 36.2694 28.553 38.1225 28.553C42.2412 28.553 45.3299 25.4491 46.978 23.5884C49.0374 20.6907 50.8904 18.0014 51.0967 15.5191C51.5086 13.657 51.5086 12.2088 51.5086 11.174C51.5121 7.65535 50.8939 5.17233 48.8346 3.31023Z" fill="#363636" fill-opacity="0.4"/>
<path fill-rule="evenodd" clip-rule="evenodd" d="M0.0292969 9.93148V12.0005C0.441166 12.0005 0.647448 12.0005 1.2649 12.2075C1.47049 12.2075 1.88305 12.6215 2.08864 12.8285C2.08864 13.2424 2.29423 13.2424 2.29423 13.4494V25.2422C2.29423 25.4485 2.08864 25.8624 2.08864 26.0694C1.88305 26.0694 1.47049 26.2757 1.2649 26.6896H0.0292969V28.7594H13.4154C14.4447 28.7594 15.2685 28.5517 16.0922 28.1378C16.9159 27.9315 17.7397 27.1029 18.1508 26.6889C18.769 25.8617 19.1809 24.6199 19.1809 23.3787C19.1809 22.5515 19.1809 21.9312 18.769 21.3096C18.5634 20.4824 17.9453 20.0685 17.3278 19.4468C16.9159 18.6196 15.8859 17.9987 14.651 17.9987C13.4154 17.5854 11.5623 17.1715 9.70857 17.1715H7.23735V13.6543C7.23735 13.4473 7.23735 13.2403 7.64922 12.8271L7.85481 12.6201C8.06109 12.2061 8.47296 12.2061 8.88483 12.2061H9.50229C11.1498 12.2061 12.7972 12.6201 13.4154 13.4473C14.4447 13.8613 15.2685 15.1024 16.0922 16.5506L17.9453 15.5164L15.8859 9.93009H0.0292969V9.93148ZM7.23735 20.0692H9.50229C10.7379 20.0692 11.9735 20.2754 12.591 20.4831C13.4154 21.1047 13.6203 21.9319 13.6203 22.9654C13.6203 23.7926 13.4147 24.4143 13.0028 25.2415C12.7972 25.4478 12.1791 25.8617 11.5616 26.0687C11.1498 26.275 10.5316 26.275 9.70857 26.275C8.88483 26.275 8.67924 26.275 8.06109 26.0687C7.64922 26.0687 7.23735 25.4471 7.23735 25.0338V20.0692ZM53.5709 20.2754H57.2777C57.8952 20.4831 58.307 20.6894 58.7189 21.104C58.9245 21.7243 59.1308 22.1375 59.1308 22.9654C59.1308 24.0003 58.9245 25.0345 58.1008 25.4478C57.6889 26.275 56.4533 26.6889 55.0121 26.8966C54.3946 26.8966 53.7765 26.6889 53.159 26.6889C52.9534 26.275 52.7472 26.275 52.3353 26.0687C52.129 25.861 51.9234 25.4471 51.9234 25.2415C51.5116 25.0338 51.5116 24.6199 51.5116 24.4143C51.5116 24.4143 51.5116 24.0003 51.9234 23.7926V22.9654C51.9234 22.5522 51.5116 22.1382 51.306 21.7243C51.0997 21.104 50.2759 20.6894 49.4522 20.6894C48.6285 20.6894 48.011 21.311 47.5991 21.9319C47.1873 22.1382 46.9817 22.9654 46.9817 23.7933C46.9817 25.2422 47.8054 26.6896 49.041 27.7245C50.4822 28.7594 52.9534 29.3796 55.8365 29.3796C59.1315 29.3796 61.3964 28.7594 62.8383 27.3105C64.0739 26.2757 64.6914 25.0345 64.6914 23.3794C64.6914 22.1382 64.4858 21.1047 63.662 20.2754C62.8383 19.2419 61.6027 18.828 60.1615 18.6203H60.3671C61.3964 18.414 62.2201 17.7931 63.0439 17.1729C63.8683 16.5519 64.0732 15.5178 64.0732 14.4829C64.0732 13.241 63.6613 11.7929 62.2201 10.9657C61.1908 9.93078 59.1315 9.31055 56.8658 9.31055C55.6302 9.31055 54.6009 9.51683 53.7772 9.51683C52.9534 9.93078 52.1297 10.1378 51.306 10.3447L51.0997 9.93079H48.6285L48.0103 15.5171L50.8934 15.931C51.099 15.3101 51.3053 14.4829 52.129 13.448C52.7472 13.241 53.1583 12.6208 53.7765 12.2068C54.3946 11.9999 55.0121 11.7929 55.6295 11.7929C57.0714 11.9999 57.8945 12.2068 58.3063 12.8271C58.7182 13.241 58.9245 13.448 58.9245 13.6543C58.9245 13.8606 59.1308 14.2752 59.1308 14.4822C58.9245 15.3094 58.9245 15.9303 58.7189 16.1373C58.1008 16.7582 57.8952 16.9645 57.2777 16.9645C56.8658 17.1715 56.2477 17.5854 55.6302 17.5854H53.5702L53.5709 20.2754Z" fill="#46505B"/>
<path fill-rule="evenodd" clip-rule="evenodd" d="M58.5566 3.16338H59.1484V7.61546H58.5566V4.00935L56.2347 7.61546H55.6499V3.16338H56.2347V6.7438L58.5566 3.16338ZM66.769 7.61546H66.1842V3.16338H66.769V5.02062H68.9638V3.16338H69.5486V7.61546H68.9638V5.52278H66.769V7.61546ZM78.5368 7.1133H78.2888C78.1832 7.1133 78.0527 7.10427 77.9006 7.0876C77.7401 7.06908 77.5822 7.03298 77.4297 6.97995C77.1504 6.88202 76.8941 6.71046 76.6629 6.46459C76.4316 6.21872 76.3156 5.84574 76.3156 5.34497C76.3156 4.84003 76.4337 4.46428 76.6698 4.21632C76.9046 3.96837 77.165 3.79959 77.4484 3.71069C77.6061 3.65999 77.7561 3.62595 77.9026 3.60928C78.0492 3.59262 78.1777 3.58359 78.2881 3.58359H78.5361V2.90918H79.1209V3.58359H79.3626C79.4723 3.58359 79.6015 3.59123 79.7481 3.60581C79.8946 3.6204 80.0439 3.65304 80.196 3.70444C80.4808 3.79334 80.7427 3.96142 80.9816 4.20729C81.2219 4.45317 81.3414 4.83239 81.3414 5.34566C81.3414 5.8249 81.2344 6.18607 81.017 6.43056C80.801 6.67434 80.5642 6.84729 80.3051 6.94869C80.1293 7.01695 79.9457 7.06292 79.7585 7.08552C79.5848 7.10427 79.4536 7.114 79.364 7.114H79.1223V7.78146H78.5375L78.5368 7.1133ZM78.5368 4.0538H78.3715C77.9172 4.0538 77.5915 4.13576 77.3949 4.29898C77.1984 4.4622 77.0692 4.64139 77.0094 4.83587C76.9822 4.92397 76.9631 5.01442 76.9525 5.10605C76.9369 5.26236 76.936 5.41978 76.9497 5.57626C76.9567 5.65891 76.9712 5.74503 76.9969 5.83394C77.0567 6.03744 77.1852 6.22289 77.3824 6.39027C77.5797 6.55766 77.9089 6.6417 78.3715 6.6417H78.5368V4.0538ZM79.2869 6.6424C79.3668 6.6424 79.4564 6.63823 79.5543 6.6292C79.6571 6.62016 79.759 6.60321 79.8592 6.57849C80.0752 6.51946 80.2731 6.40069 80.451 6.22219C80.6288 6.04369 80.7184 5.75128 80.7184 5.34428C80.7184 4.94144 80.6274 4.65111 80.4468 4.47331C80.2833 4.30483 80.0786 4.18201 79.8529 4.117C79.7515 4.09131 79.6522 4.07464 79.5543 4.0663C79.4564 4.05797 79.3668 4.0531 79.2869 4.0531H79.1216V6.6417L79.2869 6.6424ZM89.9413 7.74882C89.2711 7.74465 88.7571 7.53073 88.3987 7.10705C88.0403 6.68268 87.8618 6.11037 87.8618 5.39012C87.8618 4.54624 88.0723 3.94198 88.4911 3.57734C88.8895 3.22078 89.4066 3.02563 89.9413 3.03003C90.4976 3.03003 90.9817 3.2127 91.3985 3.57734C91.8138 3.94198 92.0208 4.54624 92.0208 5.39012C92.0208 6.11453 91.8416 6.68823 91.4839 7.11052C91.1262 7.53281 90.6115 7.74326 89.9413 7.74326V7.74882ZM89.9413 7.24666C90.4462 7.24666 90.815 7.07302 91.0484 6.72574C91.2818 6.37847 91.3985 5.93256 91.3985 5.39012C91.3985 4.87684 91.3172 4.49206 91.1554 4.23577C90.9956 3.97948 90.8164 3.80029 90.622 3.69819C90.501 3.63142 90.3698 3.58518 90.2337 3.56136C90.1368 3.54494 90.0389 3.53543 89.9406 3.53289C89.8725 3.53289 89.801 3.53705 89.7246 3.54539C89.6465 3.55406 89.5697 3.57129 89.4954 3.59678C89.2405 3.66902 89.0085 3.8371 88.7995 4.10242C88.589 4.36774 88.4834 4.79697 88.4834 5.39012C88.4834 5.49152 88.4904 5.61029 88.5036 5.74642C88.5161 5.88186 88.5418 6.02146 88.5793 6.16593C88.6515 6.4375 88.7897 6.68546 88.9932 6.9098C89.1981 7.13414 89.5128 7.24666 89.9413 7.24666Z" fill="#363636" fill-opacity="0.4"/>
</svg>
