<svg width="136" height="32" viewBox="0 0 136 32" fill="none" xmlns="http://www.w3.org/2000/svg">
<g clip-path="url(#clip0_89_2758)">
<path d="M14.374 0.127965C10.937 0.459247 7.67939 1.92241 5.25 4.22757C2.15804 7.14009 0.432617 11.1845 0.432617 15.5463C0.432617 22.5033 4.0491 28.1764 10.095 30.6611C12.7038 31.7377 14.7053 32.069 18.0871 31.9586C20.6822 31.8758 22.38 31.5997 24.3677 30.9509C25.5548 30.5644 28.3155 29.2669 28.3155 29.1013C28.3155 29.0461 28.0394 28.4111 27.6943 27.6795L27.0731 26.3406L26.2173 26.8237C24.0088 28.0246 21.9383 28.5353 18.7911 28.6458C14.0013 28.7976 10.799 27.7623 8.07969 25.1949C5.80213 23.0554 4.47701 20.2533 4.17333 16.9405C3.64881 11.3225 6.4647 6.3809 11.3511 4.31039C12.9661 3.63402 14.4154 3.37176 16.5136 3.38556C18.8187 3.39937 20.0334 3.66163 21.8279 4.55885C23.4705 5.37325 25.5272 7.40235 26.3554 9.03115C27.2526 10.7842 27.5563 12.0265 27.5563 13.9866C27.5563 15.7534 27.2802 16.9681 26.59 18.3346C25.8032 19.8944 24.2297 21.3024 22.518 22.0063C19.9506 23.0416 16.6102 22.9864 14.4016 21.8683C12.6624 20.9849 11.2959 18.8177 11.006 16.4988L10.9232 15.85H24.1744V14.4007C24.1744 9.81794 22.0349 6.65697 18.308 5.70453C17.2175 5.42847 14.7329 5.42846 13.6287 5.71834C8.43858 7.05726 5.56748 13.5311 7.59657 19.3837C8.16251 21.0401 8.75606 21.9649 10.095 23.3039C11.7928 25.0017 13.3526 25.8299 15.7268 26.2854C17.0933 26.5476 19.992 26.5338 21.4276 26.2578C25.817 25.4296 29.2265 22.3928 30.5654 18.1276C30.7448 17.5202 30.9519 16.761 31.0071 16.4298L31.1037 15.85H32.7325V20.9849C32.7325 23.9526 32.8016 26.3958 32.8844 26.7409C33.2847 28.5077 34.7064 30.2193 36.4733 31.089C37.8536 31.7515 38.9026 32 40.3934 32C42.8366 32 44.6311 31.296 46.2046 29.7224C47.2813 28.6458 47.8058 27.7209 48.0405 26.4234C48.1371 25.8989 48.1923 23.221 48.1923 19.1352V12.6752H44.4654V25.7332L44.1065 26.451C43.4302 27.8176 42.1464 28.5491 40.3796 28.5491C39.4134 28.5491 39.1511 28.4939 38.4057 28.1212C37.5637 27.7071 37.1496 27.2792 36.6527 26.3406C36.4042 25.8851 36.3904 25.3882 36.349 19.2595L36.3076 12.6752H31.0899L31.0071 12.0127C30.6068 8.86551 29.2541 6.16004 27.0317 4.02052C24.6438 1.72916 21.745 0.459247 18.1148 0.114162C16.486 -0.0376753 16.0719 -0.0376753 14.374 0.127965ZM17.8387 8.87931C19.0948 9.32102 20.1715 10.6185 20.4337 12.0403L20.5441 12.6752H11.075L11.2821 11.9437C11.6686 10.6599 12.4416 9.67991 13.5458 9.08636C14.5949 8.52042 16.555 8.4238 17.8387 8.87931ZM55.7842 15.919V30.8957H57.0265V0.942365H55.7842V15.919ZM94.8478 2.11565V3.28894H97.6084V0.942365H94.8478V2.11565ZM64.0662 7.29192V13.0893H67.1996C70.8023 13.0893 71.7685 12.9651 72.7761 12.3578C73.7286 11.778 74.1427 11.0326 74.1427 9.87316C74.1427 8.71367 73.7424 7.92688 72.8866 7.38855L72.224 6.97444L72.6105 6.61556C73.2869 5.9806 73.4801 5.42846 73.4249 4.31039C73.3835 3.44078 73.3283 3.23373 72.9556 2.77822C72.7347 2.48834 72.2378 2.10185 71.8513 1.9086C71.1888 1.57732 71.0921 1.56352 67.6275 1.52211L64.0662 1.4807V7.29192ZM70.1811 4.00672C70.8989 4.37941 71.0093 4.98676 70.4986 5.59411C70.1673 5.9806 70.1397 5.9806 68.4281 6.02201L66.6889 6.07722V3.84108H68.2901C69.2287 3.84108 70.0017 3.91009 70.1811 4.00672ZM70.8299 8.57564C71.3406 8.8379 71.5891 9.41764 71.382 9.91457C71.1197 10.5495 70.4158 10.7428 68.4143 10.7428H66.6889V8.39619H68.5937C69.836 8.39619 70.609 8.46521 70.8299 8.57564ZM88.0427 4.18616C85.8204 4.90394 85.351 7.88547 87.2973 9.00354C87.6148 9.18299 88.4016 9.50046 89.0503 9.70751C90.3617 10.1216 90.5687 10.2458 90.5687 10.6185C90.5687 11.3087 89.0641 11.3087 87.6976 10.6185C87.2283 10.3839 86.8004 10.1906 86.7452 10.1906C86.69 10.1906 86.4001 10.5633 86.0964 11.0188C85.4753 11.9851 85.4753 11.9575 86.8004 12.6062C87.7942 13.0893 88.7881 13.2688 89.9476 13.1998C91.8662 13.0755 92.9153 12.1921 93.0257 10.6047C93.1361 9.08636 92.4598 8.35478 90.196 7.56799C89.4921 7.31953 88.8157 7.00205 88.6777 6.85021C88.443 6.58795 88.443 6.56034 88.7605 6.31188C89.2436 5.91158 89.92 6.00821 91.3417 6.68457C91.604 6.8088 91.8386 6.89162 91.8662 6.86402C91.8938 6.83641 92.1285 6.42231 92.4046 5.95299L92.9015 5.08338L92.5702 4.86253C91.4521 4.13095 89.2574 3.79967 88.0427 4.18616ZM103.82 4.18616C103.558 4.31039 103.13 4.60026 102.895 4.83492L102.44 5.27663V4.11714H99.817V13.0893H102.44V10.4667C102.44 7.5956 102.536 7.08487 103.185 6.67077C103.599 6.3947 104.344 6.3671 104.786 6.60175C105.366 6.91923 105.476 7.49897 105.476 10.3977V13.0893H108.113L108.071 9.45905L108.03 5.81496L107.657 5.26282C107.105 4.42082 106.456 4.08954 105.283 4.02052C104.593 3.99291 104.165 4.03432 103.82 4.18616ZM112.792 4.21377C111.37 4.71069 110.349 5.87017 109.949 7.42996C109.328 9.85935 110.584 12.2749 112.82 13.0065C113.814 13.324 115.498 13.2964 116.422 12.9513C117.099 12.7028 118.314 11.8194 118.314 11.5986C118.314 11.5434 117.968 11.2121 117.568 10.8394L116.809 10.1906L116.091 10.6323C115.511 11.005 115.235 11.0879 114.587 11.0879C113.689 11.0879 113.206 10.8256 112.792 10.1492C112.64 9.90076 112.516 9.6661 112.516 9.59709C112.516 9.54187 113.924 9.50046 115.636 9.50046H118.769L118.7 8.4238C118.548 6.16004 117.554 4.72449 115.746 4.17236C114.904 3.9239 113.579 3.9377 112.792 4.21377ZM115.235 6.40851C115.58 6.62936 115.884 7.05726 116.036 7.52658L116.119 7.84406H114.324C113.151 7.84406 112.516 7.78884 112.516 7.70602C112.516 7.6232 112.599 7.38855 112.709 7.18149C113.234 6.17385 114.324 5.84257 115.235 6.40851ZM122.524 4.10334C121.129 4.47603 120.246 5.53889 120.246 6.87782C120.246 8.24436 121.005 8.98974 123.02 9.6385C124.277 10.0388 124.801 10.3149 124.801 10.5909C124.801 10.6461 124.677 10.8118 124.525 10.9498C124.125 11.3225 122.951 11.1707 121.889 10.6323C121.419 10.3839 120.991 10.1906 120.936 10.1906C120.771 10.1906 119.804 11.7228 119.873 11.9023C119.97 12.1645 121.226 12.7857 122.109 13.0203C124.249 13.5725 126.402 12.9513 126.954 11.6124C127.065 11.3639 127.148 10.7566 127.148 10.2735C127.148 9.45905 127.106 9.32102 126.706 8.87931C126.223 8.32718 125.657 8.0097 124.525 7.63701C123.324 7.25051 122.731 6.90543 122.731 6.60175C122.731 5.93919 123.862 5.91158 125.215 6.54654C126.071 6.94684 126.057 6.96064 126.678 5.73214C127.01 5.09718 127.01 5.04197 126.789 4.87633C125.961 4.28278 123.531 3.82727 122.524 4.10334ZM130.944 4.10334C129.991 4.338 129.094 5.05577 128.818 5.81496C128.597 6.3671 128.625 7.51278 128.859 7.96829C129.246 8.69987 129.95 9.15538 131.372 9.61089C132.117 9.85935 132.807 10.1078 132.89 10.163C133.18 10.3563 133.207 10.7152 132.945 10.9498C132.545 11.3087 131.385 11.1707 130.281 10.6323C129.798 10.3839 129.356 10.1906 129.329 10.1906C129.177 10.1906 128.238 11.7504 128.293 11.9023C128.39 12.1645 129.646 12.7857 130.53 13.0203C132.669 13.5725 134.822 12.9513 135.374 11.6124C135.485 11.3639 135.568 10.798 135.568 10.3563C135.568 9.01735 134.891 8.28577 133.111 7.69222C131.744 7.25051 131.151 6.91923 131.151 6.60175C131.151 5.95299 132.283 5.91158 133.621 6.53274C134.022 6.72598 134.381 6.87782 134.408 6.87782C134.477 6.87782 135.471 5.06958 135.416 5.02817C135.388 5.00056 135.098 4.84872 134.781 4.68308C133.58 4.07573 132.02 3.84108 130.944 4.10334ZM75.8267 7.5956C75.8681 10.8532 75.8819 11.1293 76.1718 11.64C76.7515 12.7167 77.6211 13.2274 78.9049 13.2274C79.7883 13.2274 80.368 13.0203 81.0168 12.482L81.4585 12.0955V13.0893H84.2192V4.11714H81.4723L81.4309 7.07107C81.3895 9.74892 81.3619 10.0526 81.1272 10.3149C80.5613 10.9498 79.4432 10.9084 78.8772 10.2596C78.5736 9.91457 78.5598 9.80414 78.5598 7.00205V4.11714H75.7715L75.8267 7.5956ZM94.8478 8.60324V13.0893H97.4704V4.11714H94.8478V8.60324ZM84.0811 24.5462V30.6196H86.7038V28.1626C86.7176 25.4296 86.8142 24.7946 87.2973 24.2977C87.9461 23.6627 89.285 23.925 89.6025 24.767C89.6853 24.9603 89.7405 26.3544 89.7405 27.8728V30.6196H92.5288L92.4736 27.1964C92.4322 24.3115 92.3908 23.7041 92.1837 23.2348C91.673 22.0892 90.762 21.5232 89.423 21.5094C88.4844 21.5094 87.7666 21.7717 87.1593 22.3652L86.7038 22.8069V18.4727H84.0811V24.5462ZM116.933 24.5462V30.6196H119.556V18.4727H116.933V24.5462ZM66.7303 18.8868C64.8806 19.2595 63.804 20.5432 63.7901 22.379C63.7901 23.5523 64.011 24.0768 64.7564 24.7256C65.3361 25.2087 65.9849 25.471 68.4557 26.2026C69.0078 26.3544 69.5876 26.6167 69.7394 26.7685C70.3192 27.3482 69.7946 28.1902 68.7456 28.3559C67.9588 28.4801 66.7993 28.1626 65.7778 27.5553L64.8392 26.9894L64.0386 27.8728C63.6107 28.3559 63.2518 28.7976 63.238 28.8528C63.238 29.0737 65.0186 30.0951 65.9159 30.385C66.6751 30.6196 67.2272 30.6887 68.3591 30.6887C69.7532 30.6887 69.8636 30.6611 70.7747 30.2055C71.5753 29.7914 71.7961 29.5982 72.1688 28.9632C72.5691 28.3007 72.6243 28.0936 72.6243 27.224C72.6243 26.0645 72.4863 25.5952 71.9618 25.0569C71.3544 24.4081 70.5814 24.0492 68.7594 23.5109C67.7655 23.221 66.8959 22.8897 66.7303 22.7241C65.8468 21.8959 66.9373 20.9849 68.4833 21.2609C68.8284 21.3162 69.5186 21.5784 70.0293 21.8407L70.9679 22.31L71.6581 21.33L72.362 20.3361L72.0446 20.0739C70.8575 19.0938 68.4419 18.5555 66.7303 18.8868ZM77.2899 21.6889C75.8405 22.241 74.8053 23.2348 74.3497 24.5324C74.2393 24.8774 74.1427 25.5952 74.1427 26.1611C74.1427 27.997 74.9433 29.3635 76.5169 30.2193C77.3589 30.6749 77.4417 30.6887 78.9049 30.6887C80.3128 30.6887 80.4784 30.6611 81.141 30.2884C81.5275 30.0813 82.0244 29.7224 82.2315 29.5016L82.618 29.1013L81.8726 28.3421C81.072 27.5277 80.9063 27.4587 80.6165 27.8038C80.0367 28.4939 78.6564 28.6596 77.8144 28.135C76.8343 27.5415 76.4893 26.0507 77.0414 24.9603C77.6764 23.7041 79.2361 23.4143 80.3266 24.3391C80.5613 24.5324 80.7959 24.6842 80.8649 24.6842C80.934 24.6842 81.3481 24.3115 81.8036 23.8422L82.6318 23.014L82.1487 22.5999C81.2376 21.8269 80.5475 21.5922 79.1119 21.5508C78.2561 21.5232 77.6211 21.5646 77.2899 21.6889ZM97.2357 21.7717C95.3033 22.4895 94.13 24.1182 94.1162 26.1197C94.1162 27.2102 94.337 27.9556 94.8892 28.77C95.8416 30.1503 97.4014 30.8405 99.3201 30.7301C101.28 30.6196 102.647 29.7638 103.433 28.1626C103.848 27.3344 103.889 27.1274 103.875 26.0645C103.875 25.1397 103.806 24.7532 103.558 24.2563C103.061 23.2348 102.371 22.5309 101.377 22.0339C100.59 21.6474 100.3 21.5784 99.2096 21.5508C98.2296 21.5094 97.8017 21.5646 97.2357 21.7717ZM100.19 24.1597C101.432 24.905 101.639 26.7547 100.59 27.8038C99.1682 29.2255 96.7802 28.1764 96.7802 26.1335C96.7802 25.0155 97.2772 24.2701 98.2572 23.925C98.8783 23.7041 99.5685 23.787 100.19 24.1597ZM108.416 21.7579C106.277 22.5171 105.076 24.3115 105.228 26.4924C105.352 28.2317 106.291 29.5568 107.947 30.3298C108.624 30.6473 108.886 30.6887 110.17 30.6887C111.481 30.6887 111.688 30.6472 112.378 30.3022C113.413 29.7638 114.214 28.9494 114.656 27.9694C114.987 27.2378 115.028 27.0032 114.973 25.9541C114.918 24.5462 114.628 23.8146 113.745 22.9174C112.806 21.9787 111.867 21.5922 110.39 21.5508C109.438 21.5094 108.969 21.5646 108.416 21.7579ZM111.136 24.063C113.234 25.1397 112.502 28.4663 110.17 28.4663C108.513 28.4663 107.395 26.7271 108.071 25.2225C108.651 23.925 109.921 23.4419 111.136 24.063Z" fill="#46505B"/>
</g>
<defs>
<clipPath id="clip0_89_2758">
<rect width="135.135" height="32" fill="white" transform="translate(0.432617)"/>
</clipPath>
</defs>
</svg>
