<svg width="148" height="36" viewBox="0 0 148 36" fill="none" xmlns="http://www.w3.org/2000/svg">
<g clip-path="url(#clip0_89_2761)">
<path d="M31.9908 0.853937C28.405 0.82185 25.0184 2.63398 25.0184 2.63398C25.0184 2.63398 21.6066 4.70037 20.3603 7.79663C20.2959 8.09736 13.5367 21.2067 13.5367 21.2067C4.96883 18.7292 0.826533 23.7493 0.957093 25.6869C3.02702 30.8797 13.149 27.1857 14.1596 25.9834C14.719 25.6834 15.0795 26.0427 15.0795 26.0427C15.0795 26.0427 17.5584 27.6931 17.8385 27.823C18.1184 27.9529 19.5298 27.7637 19.5298 27.7637C20.6274 27.6803 22.5858 25.5293 22.823 25.5088C23.189 25.5099 23.6305 27.8916 25.1373 27.8527C26.9452 28.2021 28.9051 26.1616 28.9051 26.1616C29.1632 25.7964 29.2612 26.0724 29.2612 26.0724C29.2196 28.3105 31.0372 27.9157 31.5752 27.8527C33.3614 27.1257 37.7365 22.8152 37.2422 24.0848C37.0702 24.4287 35.729 26.9328 35.729 26.9328C35.5787 27.5999 36.0554 27.5559 36.0554 27.5559L39.2001 27.5263C39.7379 27.2047 42.4894 21.2795 42.1672 22.0969C43.1587 20.3023 45.4011 19.6641 45.4011 19.6641C45.6164 19.5999 45.5197 19.9013 45.5197 19.9013L41.8408 27.1999C41.7766 27.393 42.1373 27.5856 42.1373 27.5856L45.3415 27.5263C45.7722 27.4846 48.4568 21.9781 48.4568 21.9781C49.1875 20.5809 51.7799 19.7827 51.7799 19.7827C52.253 19.6977 51.9282 20.1684 51.9282 20.1684L49.4064 25.4495C49.0231 27.8471 51.0377 27.9876 51.8985 27.8823C52.7593 27.7557 54.1592 27.2709 56.9125 25.212C57.4723 24.7836 57.5949 25.2147 57.5949 25.3012C57.6186 28.2496 60.8585 27.912 60.8585 27.912C61.8271 28.1514 65.7587 28.0587 69.047 21.5035C67.8448 25.9551 70.296 27.1673 70.3823 27.3187C70.4686 27.4692 71.7864 27.9294 72.2809 27.823C77.2962 28.2676 79.4016 20.4652 79.4016 20.4652C80.5301 19.6185 80.8167 19.3755 81.2708 19.1299C82.3903 19.2401 82.6908 19.2718 83.229 19.3377C83.6591 19.4897 83.2692 19.8914 83.1398 20.0199C78.0203 24.0093 80.2675 27.0857 80.4401 27.0219C82.6804 30.0627 87.331 24.7621 88.2133 24.6781C89.3356 29.1583 92.7501 27.2078 92.901 27.2295C92.6001 28.1111 91.7244 30.2913 90.9725 31.7095C89.4027 33.9224 86.9375 31.4426 86.9375 31.4426L86.3144 31.413C86.0134 31.7993 86.1958 32.2437 86.1958 32.2437C86.8419 33.2786 87.6693 34.7108 90.2307 35.0622C92.8134 35.1771 94.2954 32.3326 94.2954 32.3326C94.2954 32.3326 97.9161 25.6519 98.1524 24.856C99.2493 23.869 101.153 22.4439 102.573 21.4145C103.498 21.2235 100.258 26.5068 100.022 27.2592C99.9572 27.6898 100.111 27.7044 100.111 27.7044C100.111 27.7044 102.574 27.8268 103.048 27.7637C103.521 27.7004 105.82 22.2377 106.638 21.2069C107.347 20.025 109.634 18.9223 109.634 18.9223C110.129 18.8161 109.961 19.397 109.961 19.397L106.934 25.509C106.204 28.0675 108.26 28.0808 108.626 28.0604C109.615 27.998 113.313 25.8648 113.313 25.8648C113.829 25.4787 113.818 26.1023 113.818 26.1023C113.775 26.9201 114.658 28.26 115.39 28.0899C118.016 28.3337 121.987 23.9717 122.095 24.3813C122.117 24.4676 120.612 27.4373 120.612 27.4373C120.676 27.6741 120.938 27.7933 120.938 27.7933C120.938 27.7933 123.481 27.8212 124.083 27.823C124.686 27.8248 127.427 21.2744 128.029 20.91C129.255 19.6437 130.597 19.5236 130.64 19.5453C131.092 19.5254 128.082 24.3333 127.91 25.301C127.245 28.0759 129.216 28.0306 129.216 28.0306C130.787 28.272 134.64 25.5389 134.704 25.7756C135.156 25.3253 135.209 25.8648 135.209 25.8648V26.0724C135.469 28.3118 136.781 28.0602 136.781 28.0602C138.288 28.4519 144.169 23.5209 144.169 23.5209L143.279 22.542L139.6 25.212C139.299 25.3623 139.125 25.0341 139.125 25.0341L143.249 17.0828C143.443 16.8898 143.16 16.6674 143.16 16.6674H139.452C139.193 16.9462 139.036 17.1421 139.036 17.1421L135.684 23.6694L132.005 25.4791C131.618 25.5853 131.708 25.1826 131.708 25.1826C131.708 25.1826 134.773 19.1675 135.031 18.3288C135.203 17.942 135.12 17.3202 135.12 17.3202C134.107 14.971 130.013 18.0122 129.453 18.0323C129.432 18.0538 129.958 16.9642 129.958 16.9642C130.108 16.6415 129.809 16.6378 129.809 16.6378L126.368 16.6081C126.368 16.6081 126.378 16.3636 126.249 16.5785C126.12 16.7933 123.905 20.9398 123.905 20.9398L118.357 25.1231C117.884 25.2083 118.001 24.8858 118.001 24.8858L122.066 17.0235L122.095 16.6971L118.179 16.6081L114.945 22.8385C114.773 23.0319 111.385 24.9451 111.385 24.9451C110.868 25.0947 110.851 24.6484 110.851 24.6484L113.848 18.8334C114.526 16.5647 112.048 15.8978 110.821 16.341C109.992 16.6398 109.219 16.9049 109.219 16.9049C109.219 16.9049 108.974 16.9686 109.189 16.6674C109.555 16.1518 113.343 8.65678 113.343 8.65678C113.429 8.44147 113.224 8.30073 113.224 8.30073L109.783 8.27108C109.503 8.39898 109.456 8.59748 109.456 8.59748L104.561 17.8838L100.526 20.9102C100.268 21.0817 100.259 20.7913 100.259 20.7913L102.276 16.9642V16.5782L98.6567 16.5486L98.0632 17.0232C97.6539 16.1611 95.5766 16.1713 95.5118 16.1925C91.1641 16.0509 88.7176 22.2153 88.7176 22.2153C86.2984 24.3125 85.1807 24.9651 84.3861 25.0932C83.7249 25.1304 83.5255 24.5886 83.5255 24.5886C82.6045 21.7668 88.3912 19.1 88.3912 19.1C88.585 18.9927 89.4188 16.4895 89.3111 16.4893C89.2033 16.4891 82.1958 16.4811 82.1311 16.4596C81.7434 16.308 79.8718 18.0695 79.3126 18.4771C77.6735 13.6729 71.3228 17.3065 70.4416 19.4561C70.0632 19.557 69.8935 19.4866 69.6998 19.4857C69.7636 17.8504 69.5465 16.8307 68.5131 16.3111C67.9532 16.0084 65.6651 16.3111 65.6651 16.3111L69.5516 8.5676C69.745 8.33127 69.3734 8.09294 69.3734 8.09294H65.8727C65.722 8.1788 65.5463 8.38947 65.5463 8.38947C65.5463 8.38947 58.9313 21.2016 58.5443 21.8892C58.1574 22.5767 53.3225 25.1527 53.3225 25.1527C53.365 24.6796 56.4792 19.2647 56.5863 18.2102C56.7131 15.4773 53.5896 16.341 53.5896 16.341C53.5896 16.341 51.8209 17.5152 50.2074 18.3288C49.8607 15.3359 47.2404 16.3707 47.2404 16.3707L44.2736 18.2992L44.8076 16.9049L44.9264 16.3707L41.3659 16.2817C40.9576 16.582 40.2386 18.2102 40.2386 18.2102L39.1112 20.287L34.0379 24.1144C33.5431 24.3926 33.8005 23.7287 33.8005 23.7287C33.8005 23.7287 37.2258 17.0104 37.3013 16.9639C37.581 16.7924 37.3608 16.3709 37.3608 16.3709L33.9191 16.341C33.9191 16.341 33.3362 17.3313 33.2072 17.4388C31.5697 15.1308 26.166 16.0675 23.268 22.898C22.8976 23.3545 22.611 23.6741 22.4077 23.7584C19.0098 27.7305 17.0671 23.788 17.0671 23.788L23.1494 12.1874C23.1494 12.1874 25.9166 5.99623 27.6591 4.23611C32.0691 1.2569 33.3258 4.05819 33.3258 4.05819C33.7069 4.94113 34.8689 8.12857 28.8755 9.66564C28.0892 9.74331 28.3413 10.1104 28.3413 10.1104C30.0857 11.6006 32.228 11.4457 32.228 11.4457C34.3375 11.8604 40.0539 8.71476 37.9837 3.67249C36.3683 1.5614 34.1421 0.873189 31.9908 0.853937ZM122.51 8.71631C119.368 8.83647 119.185 13.0536 122.392 13.4928C125.512 13.588 126.106 8.85572 122.51 8.71609V8.71631ZM143.902 8.71631C140.501 8.72826 140.755 13.5269 143.961 13.4928C147.168 13.2439 146.894 8.83204 143.902 8.71609V8.71631ZM31.6347 17.7057C32.6405 17.7287 32.4646 18.9338 32.2875 19.1596C32.3953 19.5256 30.5369 22.6603 30.5369 22.6603C28.3867 25.3448 27.3623 24.8557 27.3623 24.8557C27.3623 24.8557 26.6254 24.7535 27.1844 23.3131C27.7863 22.3032 28.9551 19.6752 30.1809 18.1505C30.8264 17.8188 31.2992 17.698 31.6347 17.7057ZM65.3681 18.0022C66.423 18.1346 65.9023 19.1 65.9023 19.1L62.9946 24.8261C62.07 25.9646 61.2145 25.5679 61.2145 25.5679C60.741 25.2218 61.5409 23.9064 61.5409 23.9064L64.2705 18.5661C64.8078 18.0078 65.3681 18.0022 65.3681 18.0022ZM95.6304 18.0321C96.4536 17.886 96.7877 18.5661 96.7877 18.5661C96.7877 18.5661 96.8355 18.6754 96.7282 19.2782C96.4923 20.2032 93.9393 24.6185 93.9393 24.6185C92.8643 25.6918 91.9218 25.4789 91.9218 25.4789C91.3839 25.3266 91.5954 24.5296 91.5954 24.5296C91.5954 24.5296 93.6627 20.2903 94.6514 18.5068C95.0387 18.2226 95.356 18.0806 95.6304 18.0321ZM75.8413 18.0618C76.296 17.985 76.7277 18.1724 76.6423 19.1297C76.1055 20.2689 73.9869 24.4539 73.5569 25.0337C73.471 25.5289 71.3075 26.3357 71.8656 24.5296C71.8656 24.5296 74.9003 18.8537 74.9216 18.5957C74.9322 18.4665 75.3867 18.1383 75.8413 18.0618ZM7.51386 22.7201C9.28771 22.6776 10.896 23.2538 10.896 23.2538C10.896 23.2538 10.4811 24.6369 6.56432 25.2713C4.71346 25.1591 3.74643 25.1673 3.74577 24.5001C4.64884 23.1563 6.13413 22.7531 7.51386 22.7201Z" fill="#46505B"/>
</g>
<defs>
<clipPath id="clip0_89_2761">
<rect width="146.341" height="36" fill="white" transform="translate(0.829102)"/>
</clipPath>
</defs>
</svg>
